<svg id="Layer_1" data-name="Layer 1" xmlns="http://www.w3.org/2000/svg" viewBox="0 0 108.4 130.34"><defs><style>.cls-1{fill:none;stroke:#459eff;stroke-linecap:round;stroke-linejoin:round;stroke-width:10.54px;}</style></defs><path class="cls-1" d="M46.22,38.54V68.63M63.77,24.36V68.63M82.5,32.75V68.63m17.55,20.45H82.27a21,21,0,0,0-16,7.31M107,82.58l-6.91,6.5V33.25A9,9,0,0,0,91.27,24a8.77,8.77,0,0,0-8.77,8.77V24.85c0-5-3.75-9.86-9.36-9.86a9.35,9.35,0,0,0-9.35,9.35h0v-.53A8.65,8.65,0,0,0,55.32,15H55a8.78,8.78,0,0,0-8.8,8.76V38.54a7.69,7.69,0,1,0-15.37-.36c0,.22,0,.45,0,.67V102a32.7,32.7,0,0,0,32.53,32.8c17.57,0,28.18-6.11,37.84-16.83l26.2-28.41a4.83,4.83,0,0,0-.14-6.69h0A14.58,14.58,0,0,0,107,82.58Z" transform="translate(-25.58 -9.72)"/></svg>