<svg id="Layer_1" data-name="Layer 1" xmlns="http://www.w3.org/2000/svg" viewBox="0 0 109.37 141.9"><defs><style>.cls-1{fill:none;stroke:#ffa41a;stroke-linecap:round;stroke-linejoin:round;stroke-width:13.33px;}</style></defs><path class="cls-1" d="M65.91,121v-4.8c0-9,8.6-16.21,19.22-16.21h0m29.54-91c-5.93-.7-11.41,2.78-12.24,7.78l-8.62,50L85.22,16.86C84.42,11.85,79,8.34,73,9S62.94,14.3,63.75,19.3c0,0,0,.07,0,.1l6.3,37.79a13.07,13.07,0,0,0-16.26,1A8.9,8.9,0,0,0,51,64.57v8.78c.26-5.37-4.69-9.9-11-10.12s-11.73,4-12,9.33c0,.26,0,.53,0,.79V99.71c0,19.42,17.36,36.38,40.33,37.63,23.66,1.29,46.08-13.78,46.08-37.41,0-31.21,0-20.78,9.51-80.68.83-5-3.29-9.62-9.21-10.32ZM39.5,63.63h0C33.13,63.63,28,68,28,73.36V85.23C28,90.6,33.13,95,39.5,95h0C45.87,95,51,90.6,51,85.23V73.36C51,68,45.87,63.63,39.5,63.63ZM74.07,81V64.57c0-5.37-5.16-9.73-11.53-9.73h0C56.17,54.84,51,59.2,51,64.57V81m63.37,19h0c0-10.47-10.06-19-22.48-19h-35c-3.29,0-6,2.25-6,5h0c0,7.7,7.4,14,16.53,14H85.15" transform="translate(-21.29 -2.18)"/></svg>